#Comment line ignore any data following # character 
#Hierarchical Translation and Rotation (.htr) file 
[Header]	
#Header keywords are followed by a single value 
FileType HTR		#Single word string
DataType HTRS		#Translation followed by rotation and scale data
FileVersion 1		#integer
NumSegments 64		#integer
NumFrames 3		#integer
DataFrameRate 30		#integer, data frame rate in this file
EulerRotationOrder ZYX
CalibrationUnits mm
RotationUnits Degrees
GlobalAxisofGravity Y
BoneLengthAxis Y
ScaleFactor 1.00
[SegmentNames&Hierarchy]
#CHILD	PARENT
Pinger_Root GLOBAL
Pelvis Pinger_Root
L_Hip Pelvis
R_Hip Pelvis
Rear_Leg01 Pelvis
Spine1 Pelvis
L_Leg01 L_Hip
L_Leg02 L_Leg01
L_Leg03 L_Leg02
L_Foot L_Leg03
L_Toe1_01 L_Foot
L_Toe2_01 L_Foot
L_Toe3_01 L_Foot
planeAlignerLeft L_Foot
L_Toe1_02 L_Toe1_01
L_Toe1_03 L_Toe1_02
L_Toe2_02 L_Toe2_01
L_Toe2_03 L_Toe2_02
L_Toe3_02 L_Toe3_01
L_Toe3_03 L_Toe3_02
planeLockWeightLeft planeAlignerLeft
R_Leg01 R_Hip
R_Leg02 R_Leg01
R_Leg03 R_Leg02
R_Foot R_Leg03
planeAlignerRight R_Foot
R_Toe1_01 R_Foot
R_Toe2_01 R_Foot
R_Toe3_01 R_Foot
planeLockWeightRight planeAlignerRight
R_Toe1_02 R_Toe1_01
R_Toe1_03 R_Toe1_02
R_Toe2_02 R_Toe2_01
R_Toe2_03 R_Toe2_02
R_Toe3_02 R_Toe3_01
R_Toe3_03 R_Toe3_02
Rear_Leg02 Rear_Leg01
Rear_Leg03 Rear_Leg02
Rear_Leg04 Rear_Leg03
Rear_Foot Rear_Leg04
planeAlignerCenter Rear_Foot
Rear_Toe1_01 Rear_Foot
Rear_Toe2_01 Rear_Foot
Rear_Toe3_01 Rear_Foot
planeLockWeightCenter planeAlignerCenter
Rear_Toe1_02 Rear_Toe1_01
Rear_Toe1_03 Rear_Toe1_02
Rear_Toe2_02 Rear_Toe2_01
Rear_Toe2_03 Rear_Toe2_02
Rear_Toe3_02 Rear_Toe3_01
Rear_Toe3_03 Rear_Toe3_02
Back_Bone Spine1
Head Spine1
Motor_Bone Back_Bone
Ping_Mechanism Back_Bone
BN_LookIK Head
bottomMouth Head
L_Mouth01 Head
L_mouthFront Head
mouthGun Head
R_Mouth01 Head
R_mouthFront Head
TopMouth Head
weapon_bone Head
[BasePosition]
#SegmentName Tx, Ty, Tz, Rx, Ry, Rz, BoneLength
Pinger_Root 0.000000 0.000000 0.000000 -90.000000 0.000000 0.000000 10.000000 
Pelvis 0.000000 0.000000 0.000000 0.000000 0.000000 0.000000 10.000000 
L_Hip 0.000000 0.000000 0.000000 0.000000 0.000000 0.000000 10.000000 
R_Hip 0.000000 0.000000 0.000000 0.000000 0.000000 0.000000 10.000000 
Rear_Leg01 0.000000 0.000000 0.000000 0.000000 0.000000 0.000000 10.000000 
Spine1 0.000000 0.000000 0.000000 0.000000 0.000000 0.000000 10.000000 
L_Leg01 0.000000 0.000000 0.000000 0.000000 0.000000 0.000000 10.000000 
L_Leg02 0.000000 0.000000 0.000000 0.000000 0.000000 0.000000 10.000000 
L_Leg03 0.000000 0.000000 0.000000 0.000000 0.000000 0.000000 10.000000 
L_Foot 0.000000 0.000000 0.000000 0.000000 0.000000 0.000000 10.000000 
L_Toe1_01 0.000000 0.000000 0.000000 0.000000 0.000000 0.000000 10.000000 
L_Toe2_01 0.000000 0.000000 0.000000 0.000000 0.000000 0.000000 10.000000 
L_Toe3_01 0.000000 0.000000 0.000000 0.000000 0.000000 0.000000 10.000000 
planeAlignerLeft 0.000000 0.000000 0.000000 0.000000 0.000000 0.000000 10.000000 
L_Toe1_02 0.000000 0.000000 0.000000 0.000000 0.000000 0.000000 10.000000 
L_Toe1_03 0.000000 0.000000 0.000000 0.000000 0.000000 0.000000 10.000000 
L_Toe2_02 0.000000 0.000000 0.000000 0.000000 0.000000 0.000000 10.000000 
L_Toe2_03 0.000000 0.000000 0.000000 0.000000 0.000000 0.000000 10.000000 
L_Toe3_02 0.000000 0.000000 0.000000 0.000000 0.000000 0.000000 10.000000 
L_Toe3_03 0.000000 0.000000 0.000000 0.000000 0.000000 0.000000 10.000000 
planeLockWeightLeft 0.000000 0.000000 0.000000 0.000000 0.000000 0.000000 10.000000 
R_Leg01 0.000000 0.000000 0.000000 0.000000 0.000000 0.000000 10.000000 
R_Leg02 0.000000 0.000000 0.000000 0.000000 0.000000 0.000000 10.000000 
R_Leg03 0.000000 0.000000 0.000000 0.000000 0.000000 0.000000 10.000000 
R_Foot 0.000000 0.000000 0.000000 0.000000 0.000000 0.000000 10.000000 
planeAlignerRight 0.000000 0.000000 0.000000 0.000000 0.000000 0.000000 10.000000 
R_Toe1_01 0.000000 0.000000 0.000000 0.000000 0.000000 0.000000 10.000000 
R_Toe2_01 0.000000 0.000000 0.000000 0.000000 0.000000 0.000000 10.000000 
R_Toe3_01 0.000000 0.000000 0.000000 0.000000 0.000000 0.000000 10.000000 
planeLockWeightRight 0.000000 0.000000 0.000000 0.000000 0.000000 0.000000 10.000000 
R_Toe1_02 0.000000 0.000000 0.000000 0.000000 0.000000 0.000000 10.000000 
R_Toe1_03 0.000000 0.000000 0.000000 0.000000 0.000000 0.000000 10.000000 
R_Toe2_02 0.000000 0.000000 0.000000 0.000000 0.000000 0.000000 10.000000 
R_Toe2_03 0.000000 0.000000 0.000000 0.000000 0.000000 0.000000 10.000000 
R_Toe3_02 0.000000 0.000000 0.000000 0.000000 0.000000 0.000000 10.000000 
R_Toe3_03 0.000000 0.000000 0.000000 0.000000 0.000000 0.000000 10.000000 
Rear_Leg02 0.000000 0.000000 0.000000 0.000000 0.000000 0.000000 10.000000 
Rear_Leg03 0.000000 0.000000 0.000000 0.000000 0.000000 0.000000 10.000000 
Rear_Leg04 0.000000 0.000000 0.000000 0.000000 0.000000 0.000000 10.000000 
Rear_Foot 0.000000 0.000000 0.000000 0.000000 0.000000 0.000000 10.000000 
planeAlignerCenter 0.000000 0.000000 0.000000 0.000000 0.000000 0.000000 10.000000 
Rear_Toe1_01 0.000000 0.000000 0.000000 0.000000 0.000000 0.000000 10.000000 
Rear_Toe2_01 0.000000 0.000000 0.000000 0.000000 0.000000 0.000000 10.000000 
Rear_Toe3_01 0.000000 0.000000 0.000000 0.000000 0.000000 0.000000 10.000000 
planeLockWeightCenter 0.000000 0.000000 0.000000 0.000000 0.000000 0.000000 10.000000 
Rear_Toe1_02 0.000000 0.000000 0.000000 0.000000 0.000000 0.000000 10.000000 
Rear_Toe1_03 0.000000 0.000000 0.000000 0.000000 0.000000 0.000000 10.000000 
Rear_Toe2_02 0.000000 0.000000 0.000000 0.000000 0.000000 0.000000 10.000000 
Rear_Toe2_03 0.000000 0.000000 0.000000 0.000000 0.000000 0.000000 10.000000 
Rear_Toe3_02 0.000000 0.000000 0.000000 0.000000 0.000000 0.000000 10.000000 
Rear_Toe3_03 0.000000 0.000000 0.000000 0.000000 0.000000 0.000000 10.000000 
Back_Bone 0.000000 0.000000 0.000000 0.000000 0.000000 0.000000 10.000000 
Head 0.000000 0.000000 0.000000 0.000000 0.000000 0.000000 10.000000 
Motor_Bone 0.000000 0.000000 0.000000 0.000000 0.000000 0.000000 10.000000 
Ping_Mechanism 0.000000 0.000000 0.000000 0.000000 0.000000 0.000000 10.000000 
BN_LookIK 0.000000 0.000000 0.000000 0.000000 0.000000 0.000000 10.000000 
bottomMouth 0.000000 0.000000 0.000000 0.000000 0.000000 0.000000 10.000000 
L_Mouth01 0.000000 0.000000 0.000000 0.000000 0.000000 0.000000 10.000000 
L_mouthFront 0.000000 0.000000 0.000000 0.000000 0.000000 0.000000 10.000000 
mouthGun 0.000000 0.000000 0.000000 0.000000 0.000000 0.000000 10.000000 
R_Mouth01 0.000000 0.000000 0.000000 0.000000 0.000000 0.000000 10.000000 
R_mouthFront 0.000000 0.000000 0.000000 0.000000 0.000000 0.000000 10.000000 
TopMouth 0.000000 0.000000 0.000000 0.000000 0.000000 0.000000 10.000000 
weapon_bone 0.000000 0.000000 0.000000 0.000000 0.000000 0.000000 10.000000 
#Beginning of Data. Separated by tabs
#Fr	Tx	Ty	Tz	Rx	Ry	Rz	SF
[Pinger_Root]
28 -3499.999023 0.000000 0.000000 -0.000075 -0.000000 -0.000020 3499.999023
29 -3629.628662 0.000000 0.000000 -0.000075 -0.000000 -0.000020 3629.628662
30 -3759.258789 0.000000 0.000000 -0.000075 -0.000000 -0.000020 3759.258789
[Pelvis]
28 -476.315521 41.941013 5059.364258 47.389088 -74.259392 18.648945 5081.909668
29 -457.304108 104.095474 5087.452148 49.604572 -74.970970 17.414394 5109.024414
30 -448.260834 165.685791 5118.054199 51.121258 -75.889877 16.528683 5140.317871
[L_Hip]
28 5.766392 125.831482 872.656799 -178.250168 -81.786369 87.376007 881.701050
29 5.766392 125.831482 872.656799 -178.250168 -81.786369 87.376007 881.701050
30 5.766392 125.831482 872.656799 -178.250168 -81.786369 87.376007 881.701050
[R_Hip]
28 5.765438 125.836372 -872.654907 -1.748770 81.786041 87.376961 881.699829
29 5.765438 125.836372 -872.654907 -1.748770 81.786041 87.376961 881.699829
30 5.765438 125.836372 -872.654907 -1.748770 81.786041 87.376961 881.699829
[Rear_Leg01]
28 -192.298416 -925.602966 -0.001907 -155.313904 23.701323 -153.881165 945.367432
29 -192.298416 -925.602966 -0.001907 -155.019058 22.878361 -154.695908 945.367432
30 -192.298416 -925.602966 -0.001907 -154.362381 21.633121 -154.337021 945.367432
[Spine1]
28 290.604584 5.007505 0.000477 -57.661148 13.747580 27.048855 290.647736
29 290.604584 5.007505 0.000477 -58.557686 15.092162 26.672415 290.647736
30 290.604584 5.007505 0.000477 -59.062424 16.318523 26.137438 290.647736
[L_Leg01]
28 761.932007 -0.002384 -0.069261 84.729042 28.849699 -108.344719 761.932068
29 761.932007 -0.002384 -0.069261 89.089272 22.242525 -106.840942 761.932068
30 761.932007 -0.002384 -0.069261 92.967773 14.576781 -106.293442 761.932068
[L_Leg02]
28 1441.140503 -0.000954 -0.000715 -1.328252 0.807283 -71.471779 1441.140503
29 1441.140503 -0.000954 -0.000715 -1.399933 0.719033 -84.926308 1441.140503
30 1441.140503 -0.000954 -0.000715 -1.420699 0.673590 -97.376244 1441.140503
[L_Leg03]
28 1686.963989 -0.000715 -0.000954 0.108588 -0.012416 80.906494 1686.963989
29 1686.963989 -0.000715 -0.000954 0.079408 -0.013267 88.960220 1686.963989
30 1686.963989 -0.000715 -0.000954 0.061437 -0.012443 93.631302 1686.963989
[L_Foot]
28 3041.570068 -30.715107 11.297464 -0.356399 10.713931 90.182053 3041.746094
29 3041.570068 -30.715107 11.297464 -3.884027 13.580311 78.331337 3041.746094
30 3041.570068 -30.715107 11.297464 -8.311860 15.569577 68.416512 3041.746094
[L_Toe1_01]
28 -188.216690 -224.732346 -21.137953 88.532990 -0.854599 -134.715683 293.899567
29 -188.216690 -224.732346 -21.137953 88.255409 0.151466 -124.236740 293.899567
30 -188.216690 -224.732346 -21.137953 88.115746 0.670999 -116.780991 293.899567
[L_Toe2_01]
28 200.746536 -219.926590 148.838394 -74.757263 -10.306990 -59.390614 332.896027
29 200.746536 -219.926590 148.838394 -74.847130 -10.228601 -59.088512 332.896027
30 200.746536 -219.926590 148.838394 -74.936523 -10.149740 -58.786598 332.896027
[L_Toe3_01]
28 188.832520 -219.859131 -191.078659 -109.634911 12.604173 -61.217457 347.140900
29 188.832520 -219.859131 -191.078659 -109.569153 12.553230 -61.045261 347.140900
30 188.832520 -219.859131 -191.078659 -109.449234 12.447492 -60.688480 347.140900
[planeAlignerLeft]
28 -85.756638 -811.678284 1.892079 0.000000 -90.000000 -90.001900 816.198181
29 -93.259232 -812.074219 3.807057 0.000000 -90.000000 -90.001900 817.420532
30 -95.938240 -814.719360 5.715321 0.000000 -90.000000 -90.001900 820.368530
[L_Toe1_02]
28 413.761139 0.000477 0.000000 0.001398 -24.193941 0.001398 413.761139
29 413.761139 0.000477 0.000000 0.001661 0.070760 0.001661 413.761139
30 413.761139 0.000477 0.000000 0.001661 0.070897 0.001661 413.761139
[L_Toe1_03]
28 464.317322 0.000358 -0.000089 0.002617 36.704929 0.002617 464.317322
29 464.317322 0.000358 -0.000089 0.001673 -0.448187 -0.003292 464.317322
30 464.317322 0.000358 -0.000089 0.001673 -0.448396 -0.003292 464.317322
[L_Toe2_02]
28 342.235809 -0.000477 0.000238 0.001185 -74.166359 0.001185 342.235809
29 342.235809 -0.000477 0.000238 0.001185 -74.022301 0.001185 342.235809
30 342.235809 -0.000477 0.000238 0.001186 -73.682083 0.001186 342.235809
[L_Toe2_03]
28 420.210846 -0.000715 0.000000 0.000000 89.494484 0.003502 420.210846
29 420.210846 -0.000715 0.000000 0.000000 89.674950 0.003494 420.210846
30 420.210846 -0.000715 0.000000 -0.058988 88.848862 -0.055491 420.210846
[L_Toe3_02]
28 329.270111 0.000954 0.000000 0.001180 -77.949615 0.001180 329.270111
29 329.270111 0.000954 0.000000 0.001180 -77.794640 0.001180 329.270111
30 329.270111 0.000954 0.000000 0.001180 -77.639648 0.001180 329.270111
[L_Toe3_03]
28 439.137451 -0.001907 0.000954 -179.981094 86.810219 -179.977600 439.137451
29 439.137451 -0.001907 0.000954 -179.974945 87.543221 -179.971451 439.137451
30 439.137451 -0.001907 0.000954 -179.963547 88.275688 -179.960052 439.137451
[planeLockWeightLeft]
28 843.750122 0.097961 0.076294 -0.011826 -0.004376 0.005620 843.750122
29 500.001556 0.098038 0.076218 -0.011826 -0.004376 0.005620 500.001556
30 156.251968 0.098114 0.076141 -0.011826 -0.004376 0.005620 156.252014
[R_Leg01]
28 761.455627 -0.001907 -0.000358 131.728134 -31.013239 64.668053 761.455688
29 761.455627 -0.001907 -0.000358 133.492432 -27.067196 66.498138 761.455688
30 761.455627 -0.001907 -0.000358 134.342010 -23.424942 69.046997 761.455688
[R_Leg02]
28 1441.140625 0.000000 -0.000238 0.192523 -0.009754 -91.838699 1441.140625
29 1441.140625 0.000000 -0.000238 0.203009 0.004167 -87.078545 1441.140625
30 1441.140625 0.000000 -0.000238 0.207295 0.017891 -85.048714 1441.140625
[R_Leg03]
28 1686.963989 0.000954 0.001431 -0.056694 0.012529 94.105225 1686.963989
29 1686.963989 0.000954 0.001431 -0.063818 0.012084 92.855621 1686.963989
30 1686.963989 0.000954 0.001431 -0.056658 0.012718 94.485725 1686.963989
[R_Foot]
28 3041.560059 -30.531288 -11.204481 -15.070608 -19.524734 46.984737 3041.734131
29 3041.560059 -30.531288 -11.204481 -14.729982 -17.419390 47.347469 3041.734131
30 3041.560059 -30.531288 -11.204481 -14.209037 -16.051910 47.632450 3041.734131
[planeAlignerRight]
28 -3.326073 -640.949036 8.230673 0.000000 -89.960434 -90.005180 641.010498
29 -64.456741 -571.853333 29.198181 0.000000 -89.960434 -90.005180 576.214722
30 -56.818584 -572.024475 28.764650 0.000000 -89.960434 -90.005180 575.558655
[R_Toe1_01]
28 -188.383347 -224.864899 21.052242 90.678795 1.557899 -163.225708 294.101532
29 -188.383347 -224.864899 21.052242 90.737846 0.419812 -165.915863 294.101532
30 -188.383347 -224.864899 21.052242 90.733543 0.454115 -166.264450 294.101532
[R_Toe2_01]
28 200.637817 -220.002121 -148.787384 -102.344513 11.755298 -46.306164 332.857574
29 200.637817 -220.002121 -148.787384 -100.846893 12.949488 -39.526012 332.857574
30 200.637817 -220.002121 -148.787384 -100.863853 12.700660 -39.760807 332.857574
[R_Toe3_01]
28 188.606735 -220.092957 191.126343 -73.505089 -15.610412 -48.513378 347.192566
29 188.606735 -220.092957 191.126343 -74.573029 -20.016150 -42.861248 347.192566
30 188.606735 -220.092957 191.126343 -74.581345 -19.754675 -42.924637 347.192566
[planeLockWeightRight]
28 999.999695 -0.000284 0.076320 -0.011823 -0.004379 -0.000027 999.999695
29 999.999695 -0.000274 0.076313 -0.011823 -0.004379 -0.000027 999.999695
30 999.999695 -0.000263 0.076307 -0.011823 -0.004379 -0.000027 999.999695
[R_Toe1_02]
28 413.762085 0.000477 -0.000119 0.001411 -22.583714 0.001411 413.762085
29 413.762085 0.000477 -0.000119 0.001403 -23.602476 0.001403 413.762085
30 413.762085 0.000477 -0.000119 0.001406 -23.163263 0.001406 413.762085
[R_Toe1_03]
28 464.317810 0.000000 0.001088 0.002604 80.126595 0.004360 464.317810
29 464.317810 0.000000 0.001088 0.009361 75.595497 0.009361 464.317810
30 464.317810 0.000000 0.001088 0.010237 76.833656 0.010237 464.317810
[R_Toe2_02]
28 342.234741 -0.000954 0.000238 -0.002338 -76.949318 -0.002338 342.234741
29 342.234741 -0.000954 0.000238 -0.002332 -79.795288 -0.002332 342.234741
30 342.234741 -0.000954 0.000238 -0.002333 -79.525085 -0.002333 342.234741
[R_Toe2_03]
28 420.210846 0.000715 -0.000268 -179.991714 79.903030 -179.995224 420.210846
29 420.210846 0.000715 -0.000268 -179.995590 64.584793 -179.999191 420.210846
30 420.210846 0.000715 -0.000268 -179.995483 65.617386 -179.999069 420.210846
[R_Toe3_02]
28 329.270355 -0.000477 -0.000954 0.001178 -80.486732 0.001178 329.270355
29 329.270355 -0.000477 -0.000954 0.001176 -82.985130 0.001176 329.270355
30 329.270355 -0.000477 -0.000954 0.001176 -82.698563 0.001176 329.270355
[R_Toe3_03]
28 439.137939 0.000238 0.001431 -179.996033 78.484520 -179.992523 439.137939
29 439.137939 0.000238 0.001431 -179.998993 66.301346 -179.995422 439.137939
30 439.137939 0.000238 0.001431 -179.998871 67.213364 -179.995316 439.137939
[Rear_Leg02]
28 1162.777710 -0.029802 0.005960 2.630386 -2.533079 -138.992233 1162.777710
29 1162.777710 -0.029802 0.005960 2.483904 -2.723547 -138.225586 1162.777710
30 1162.777710 -0.029802 0.005960 2.306123 -2.943677 -134.997086 1162.777710
[Rear_Leg03]
28 607.192505 -0.013351 -0.073195 0.010164 -0.005733 75.210175 607.192505
29 607.192505 -0.013351 -0.073195 0.010212 -0.005647 74.235268 607.192505
30 607.192505 -0.013351 -0.073195 0.010259 -0.005559 73.260414 607.192505
[Rear_Leg04]
28 995.874512 -0.020504 -0.011921 -0.044045 -0.017934 84.357872 995.874573
29 995.874512 -0.020504 -0.011921 -0.045480 -0.017320 81.721481 995.874573
30 995.874512 -0.020504 -0.011921 -0.043404 -0.016751 78.321281 995.874573
[Rear_Foot]
28 3096.176270 -0.067472 -0.041425 -12.489117 72.994141 154.948212 3096.176270
29 3096.176270 -0.067472 -0.041425 -12.638772 73.190140 157.167877 3096.176270
30 3096.176270 -0.067472 -0.041425 -12.738941 73.165291 158.790482 3096.176270
[planeAlignerCenter]
28 1.137619 47.430534 -809.667542 0.000009 0.000003 -179.999985 811.056396
29 1.137187 52.428711 -795.948364 0.000009 0.000003 -179.999985 797.674011
30 1.136754 57.426880 -782.229248 0.000009 0.000003 -179.999985 784.335205
[Rear_Toe1_01]
28 0.653352 83.966492 -371.173737 0.061564 28.166374 90.029762 380.553192
29 0.653352 83.966492 -371.173737 0.063048 27.478203 90.032005 380.553192
30 0.653352 83.966492 -371.173737 0.064488 26.790064 90.034233 380.553192
[Rear_Toe2_01]
28 178.200760 -294.826019 -362.060547 0.690479 53.351604 -70.585999 499.765686
29 178.200760 -294.826019 -362.060547 0.765177 52.697643 -70.435097 499.765686
30 178.200760 -294.826019 -362.060547 0.835972 52.043564 -70.287781 499.765686
[Rear_Toe3_01]
28 -153.359680 -308.780914 -362.060852 -0.909041 53.337734 -111.817619 499.952881
29 -153.359680 -308.780914 -362.060852 -0.990506 52.683666 -111.984322 499.952881
30 -153.359680 -308.780914 -362.060852 -1.067667 52.029461 -112.147034 499.952881
[planeLockWeightCenter]
28 999.999939 0.000210 0.076174 -0.011814 -0.004373 -0.000015 999.999939
29 999.999939 0.000198 0.076165 -0.011814 -0.004373 -0.000015 999.999939
30 1000.000000 0.000186 0.076155 -0.011814 -0.004373 -0.000015 1000.000000
[Rear_Toe1_02]
28 379.707825 0.194073 0.000477 -0.000767 -33.624729 0.000838 379.707855
29 379.707825 0.194073 0.000477 -0.000767 -33.624729 0.000838 379.707855
30 379.707825 0.194073 0.000477 -0.000767 -33.624729 0.000838 379.707855
[Rear_Toe1_03]
28 500.129700 0.165701 0.000119 -0.004929 68.983200 -0.001373 500.129761
29 500.129700 0.165701 0.000119 -0.004923 68.938187 -0.001366 500.129761
30 500.129700 0.165701 0.000119 -0.002678 69.351105 0.000166 500.129761
[Rear_Toe2_02]
28 340.494507 0.000238 -0.000954 0.001179 -79.191292 0.001179 340.494507
29 340.494507 0.000238 -0.000954 0.001179 -80.109261 0.001179 340.494507
30 340.494507 0.000238 -0.000954 0.001178 -81.027206 0.001178 340.494507
[Rear_Toe2_03]
28 433.103577 0.000000 0.000238 0.033008 85.921677 0.033008 433.103546
29 433.103577 0.000000 0.000238 0.064184 87.902214 0.064184 433.103546
30 433.103577 0.000000 0.000238 0.000000 89.886353 0.000002 433.103546
[Rear_Toe3_02]
28 340.494141 -0.000358 -0.000477 0.001179 -79.181641 0.001179 340.494171
29 340.494141 -0.000358 -0.000477 0.001178 -80.123291 0.001178 340.494171
30 340.494141 -0.000358 -0.000477 0.001177 -81.064659 0.001177 340.494171
[Rear_Toe3_03]
28 433.103577 0.001431 -0.000238 -0.017198 85.732033 -0.013696 433.103546
29 433.103577 0.001431 -0.000238 -0.030451 87.702461 -0.026949 433.103546
30 433.103577 0.001431 -0.000238 0.000000 89.672546 0.003498 433.103546
[Back_Bone]
28 1312.175781 -701.934692 0.000954 2.671739 -1.890441 -84.238838 1488.125488
29 1312.175781 -701.934692 0.000954 2.767510 -1.075504 -84.529999 1488.125488
30 1312.175781 -701.934692 0.000954 2.859121 -0.260090 -84.819740 1488.125488
[Head]
28 1406.159424 809.709290 0.001431 -6.200181 3.019356 2.924447 1622.625488
29 1406.159424 809.709290 0.001431 -5.848420 3.033231 2.513287 1622.625488
30 1406.159424 809.709290 0.001431 -5.496769 3.049624 2.102223 1622.625488
[Motor_Bone]
28 1158.364380 -417.834747 0.000477 -1.960023 -0.663910 -106.649643 1231.419434
29 1158.364380 -417.834747 0.000477 -1.845118 -0.485018 -106.470413 1231.419434
30 1158.364380 -417.834747 0.000477 -1.729658 -0.306490 -106.290817 1231.419434
[Ping_Mechanism]
28 1233.905884 -428.637451 75.735062 0.000103 -0.000053 82.120995 1308.430176
29 1230.520386 -428.132813 72.355606 0.000103 -0.000053 82.120995 1304.880615
30 1227.134766 -427.628174 68.976151 0.000103 -0.000053 82.120995 1301.338989
[BN_LookIK]
28 193.241119 1380.371704 -0.002861 0.000000 89.965736 -31.038179 1393.832153
29 193.241119 1380.371704 -0.002861 0.000000 89.965736 -31.038179 1393.832153
30 193.241119 1380.371704 -0.002861 0.000000 89.965736 -31.038179 1393.832153
[bottomMouth]
28 -435.092926 615.759399 -0.000954 -0.000022 0.000016 73.527184 753.966492
29 -435.092926 615.759399 -0.000954 -0.000022 0.000016 73.527184 753.966492
30 -435.092926 615.759399 -0.000954 -0.000022 0.000016 73.527184 753.966492
[L_Mouth01]
28 554.440979 7.658243 838.222046 150.204178 23.759130 109.605339 1005.027161
29 554.440979 7.658243 838.222046 150.204178 23.759130 109.605339 1005.027161
30 554.440979 7.658243 838.222046 150.204178 23.759130 109.605339 1005.027161
[L_mouthFront]
28 551.629089 934.514771 339.150421 0.000081 2.804060 79.119301 1136.941284
29 551.629089 934.514771 339.150421 0.000081 2.804060 79.119301 1136.941284
30 551.629089 934.514771 339.150421 0.000081 2.804060 79.119301 1136.941284
[mouthGun]
28 55.332661 1627.420898 0.000000 0.000023 0.000009 -11.038128 1628.361328
29 55.332661 1627.420898 0.000000 0.000023 0.000009 -11.038128 1628.361328
30 55.332661 1627.420898 0.000000 0.000023 0.000009 -11.038128 1628.361328
[R_Mouth01]
28 554.442383 7.659197 -838.223938 29.795891 -23.759109 109.605331 1005.029541
29 554.442383 7.659197 -838.223938 29.795891 -23.759109 109.605331 1005.029541
30 554.442383 7.659197 -838.223938 29.795891 -23.759109 109.605331 1005.029541
[R_mouthFront]
28 551.629089 934.514282 -339.151367 0.000029 -2.803930 79.119133 1136.941162
29 551.629089 934.514282 -339.151367 0.000029 -2.803930 79.119133 1136.941162
30 551.629089 934.514282 -339.151367 0.000029 -2.803930 79.119133 1136.941162
[TopMouth]
28 461.269867 -56.106091 -0.008583 -0.000059 -0.000268 92.025169 464.669525
29 461.269867 -56.106091 -0.008583 -0.000059 -0.000268 92.025169 464.669525
30 461.269867 -56.106091 -0.008583 -0.000059 -0.000268 92.025169 464.669525
[weapon_bone]
28 -987.239868 1448.372803 0.001431 0.000000 89.965736 -31.038221 1752.833740
29 -987.239868 1448.372803 0.001431 0.000000 89.965736 -31.038221 1752.833740
30 -987.239868 1448.372803 0.001431 0.000000 89.965736 -31.038221 1752.833740
